<?xml version="1.0" encoding="UTF-8"?>
<svg version="1.1" xmlns="http://www.w3.org/2000/svg" width="100" height="100">
<path d="M0 0 C1.8720813 0.00870117 1.8720813 0.00870117 3.78198242 0.01757812 C10.77863562 0.35029506 15.74376972 1.17814024 20.97875977 5.99438477 C23.6825817 8.97017279 26.05528723 12.09641 28.375 15.375 C29.58540222 16.78713592 30.8108266 18.18681287 32.0625 19.5625 C32.5678125 20.160625 33.073125 20.75875 33.59375 21.375 C36.82776163 25.00617096 40.34814664 28.36431305 43.82421875 31.76171875 C50.35140343 38.44883444 50.35140343 38.44883444 50.4375 41.828125 C49.03115764 45.19921036 46.88333036 47.54274698 44.375 50.125 C43.8809668 50.64868164 43.38693359 51.17236328 42.87792969 51.71191406 C39.14017874 55.65157567 35.29297616 59.4807251 31.42578125 63.29296875 C29.46853655 65.28003814 27.63094015 67.32351201 25.8125 69.4375 C25.01223389 70.34556396 25.01223389 70.34556396 24.19580078 71.27197266 C23.01483184 72.63599337 21.86920052 74.03174769 20.76831055 75.46118164 C16.9075972 80.01945265 13.94895895 81.93178484 7.9609375 82.6484375 C5.55900465 82.7452776 3.15373449 82.7768306 0.75 82.75 C-1.1220813 82.74129883 -1.1220813 82.74129883 -3.03198242 82.73242188 C-10.02863562 82.39970494 -14.99376972 81.57185976 -20.22875977 76.75561523 C-22.9325817 73.77982721 -25.30528723 70.65359 -27.625 67.375 C-28.83540222 65.96286408 -30.0608266 64.56318713 -31.3125 63.1875 C-31.8178125 62.589375 -32.323125 61.99125 -32.84375 61.375 C-36.07776163 57.74382904 -39.59814664 54.38568695 -43.07421875 50.98828125 C-49.60140343 44.30116556 -49.60140343 44.30116556 -49.6875 40.921875 C-48.28115764 37.55078964 -46.13333036 35.20725302 -43.625 32.625 C-43.1309668 32.10131836 -42.63693359 31.57763672 -42.12792969 31.03808594 C-38.39017874 27.09842433 -34.54297616 23.2692749 -30.67578125 19.45703125 C-28.71853655 17.46996186 -26.88094015 15.42648799 -25.0625 13.3125 C-24.52898926 12.70712402 -23.99547852 12.10174805 -23.44580078 11.47802734 C-22.26483184 10.11400663 -21.11920052 8.71825231 -20.01831055 7.28881836 C-14.22766437 0.45191227 -8.68196134 -0.09690848 0 0 Z M-5.625 5.375 C-3.975 7.355 -2.325 9.335 -0.625 11.375 C3.09360179 9.83626823 3.73133541 8.89988612 6.375 5.375 C2.415 5.375 -1.545 5.375 -5.625 5.375 Z M-12.625 7.375 C-14.01322745 8.78117867 -15.33525722 10.25297713 -16.625 11.75 C-19.88883392 15.46510357 -23.22634113 19.03021971 -26.75 22.5 C-32.12766422 27.81912044 -37.10368278 33.31155846 -41.625 39.375 C-31.95301985 40.77509266 -31.95301985 40.77509266 -23.23095703 37.21875 C-19.94842057 34.35292753 -17.06930787 31.13492922 -14.1875 27.875 C-13.15142806 26.76352136 -12.11173 25.65541131 -11.06835938 24.55078125 C-8.54427893 21.86304286 -6.07219549 19.13315803 -3.625 16.375 C-5.65586109 12.8860848 -7.56084202 10.04378275 -10.625 7.375 C-11.285 7.375 -11.945 7.375 -12.625 7.375 Z M9.6484375 8.90625 C8.70871094 9.88078125 8.70871094 9.88078125 7.75 10.875 C7.11835937 11.5246875 6.48671875 12.174375 5.8359375 12.84375 C5.35382812 13.3490625 4.87171875 13.854375 4.375 14.375 C6.29412933 19.41118653 10.57118903 22.71132509 14.3659668 26.3581543 C17.56647283 29.46748032 20.19704412 32.46513413 22.6875 36.1875 C24.38803582 38.26738612 25.55216261 39.23147172 28.21972656 39.69677734 C32.96728798 40.05018034 37.63924516 39.78433295 42.375 39.375 C34.43158137 29.88702774 25.99563738 20.79796302 17.1171875 12.1796875 C15.375 10.375 15.375 10.375 13.375 7.375 C11.23975907 7.15382569 11.23975907 7.15382569 9.6484375 8.90625 Z M-2.68798828 22.2109375 C-3.51540527 23.04882812 -4.34282227 23.88671875 -5.1953125 24.75 C-6.09121094 25.65234375 -6.98710938 26.5546875 -7.91015625 27.484375 C-8.85687899 28.4478104 -9.80349216 29.41135348 -10.75 30.375 C-11.70396802 31.33899617 -12.65838952 32.30254381 -13.61328125 33.265625 C-15.95503175 35.63102955 -18.29200503 38.00096452 -20.625 40.375 C-19.13846494 43.84129835 -17.16777649 46.06522036 -14.4921875 48.703125 C-13.68652344 49.50234375 -12.88085938 50.3015625 -12.05078125 51.125 C-11.20902344 51.95 -10.36726563 52.775 -9.5 53.625 C-8.22576172 54.88570312 -8.22576172 54.88570312 -6.92578125 56.171875 C-4.82995077 58.24415683 -2.72959287 60.31162393 -0.625 62.375 C2.84129835 60.88846494 5.06522036 58.91777649 7.703125 56.2421875 C8.50234375 55.43652344 9.3015625 54.63085938 10.125 53.80078125 C10.95 52.95902344 11.775 52.11726563 12.625 51.25 C13.46546875 50.40050781 14.3059375 49.55101563 15.171875 48.67578125 C17.24415683 46.57995077 19.31162393 44.47959287 21.375 42.375 C19.89270549 38.93894819 17.9454826 36.68798409 15.3125 34.046875 C14.51585937 33.24765625 13.71921875 32.4484375 12.8984375 31.625 C12.06570312 30.8 11.23296875 29.975 10.375 29.125 C9.54226562 28.28453125 8.70953125 27.4440625 7.8515625 26.578125 C7.05492188 25.7840625 6.25828125 24.99 5.4375 24.171875 C4.70660156 23.44323242 3.97570312 22.71458984 3.22265625 21.96386719 C0.53797748 19.65521372 -0.053381 19.86629291 -2.68798828 22.2109375 Z M-41.625 43.375 C-33.68158137 52.86297226 -25.24563738 61.95203698 -16.3671875 70.5703125 C-14.625 72.375 -14.625 72.375 -12.625 75.375 C-9.32048738 74.27349579 -7.89899208 72.56271988 -5.98046875 69.78515625 C-5.53727295 69.14843994 -5.09407715 68.51172363 -4.63745117 67.85571289 C-4.30334229 67.36707764 -3.9692334 66.87844238 -3.625 66.375 C-4.55441406 65.4571875 -5.48382813 64.539375 -6.44140625 63.59375 C-12.72449367 57.3649661 -18.93510302 51.15985998 -24.625 44.375 C-25.81352855 42.95725162 -25.81352855 42.95725162 -29.22265625 43.27734375 C-30.71096867 43.2840178 -32.19926432 43.29597817 -33.6875 43.3125 C-34.82541992 43.31926758 -34.82541992 43.31926758 -35.98632812 43.32617188 C-37.86591871 43.3379932 -39.74546899 43.35592922 -41.625 43.375 Z M12.375 57.375 C10.93973424 58.96035891 9.50278488 60.54419952 8.0625 62.125 C6.54260114 63.88609188 5.41551447 65.29397106 4.375 67.375 C6.685 70.015 8.995 72.655 11.375 75.375 C14.66231688 74.27922771 15.25503756 73.59695399 17.375 71 C20.38362251 67.44319627 23.55798591 64.14645071 26.875 60.875 C32.4612175 55.35822968 37.70801608 49.69487406 42.375 43.375 C27.46826272 40.93571572 21.62523966 46.19710553 12.375 57.375 Z M-0.625 71.375 C-2.3393618 73.33427063 -4.00905168 75.33380212 -5.625 77.375 C-1.665 77.375 2.295 77.375 6.375 77.375 C4.75905168 75.33380212 3.0893618 73.33427063 1.375 71.375 C0.715 71.375 0.055 71.375 -0.625 71.375 Z " fill="#000000" transform="translate(49.625,10.625)"/>
</svg>
