<?xml version="1.0" encoding="UTF-8" standalone="no"?>
<svg
   xmlns:dc="http://purl.org/dc/elements/1.1/"
   xmlns:cc="http://creativecommons.org/ns#"
   xmlns:rdf="http://www.w3.org/1999/02/22-rdf-syntax-ns#"
   xmlns:svg="http://www.w3.org/2000/svg"
   xmlns="http://www.w3.org/2000/svg"
   version="1.1"
   id="svg9028"
   viewBox="0 0 500.00001 93.162197"
   height="26.292442mm"
   width="141.11111mm">
  <defs
     id="defs9030" />
  <metadata
     id="metadata9033">
    <rdf:RDF>
      <cc:Work
         rdf:about="">
        <dc:format>image/svg+xml</dc:format>
        <dc:type
           rdf:resource="http://purl.org/dc/dcmitype/StillImage" />
        <dc:title></dc:title>
      </cc:Work>
    </rdf:RDF>
  </metadata>
  <g
     transform="translate(-105.83785,-389.63117)"
     id="layer1">
    <path
       id="path8171"
       style="fill:#100f0d;fill-opacity:1;fill-rule:evenodd;stroke:none"
       d="m 183.84907,389.63117 -31.59491,0 -45.98532,46.31808 -0.43099,0.43414 46.26103,46.25786 0.15845,0.15212 31.58857,0 46.10259,-45.97899 0.43098,-0.43099 -46.13427,-46.35293 -0.39613,-0.39929 z m -7.12391,5.17181 -8.62284,8.67988 -8.6165,-8.67988 17.23934,0 z m 16.96048,41.5614 -25.58332,25.58649 -25.58015,-25.58649 25.58015,-25.76712 25.58332,25.76712 z m -40.27162,-40.56634 11.16438,11.24361 -26.63543,26.82873 -22.32876,0 37.79981,-38.07234 z m -37.76495,43.07936 22.30023,0 26.61642,26.61008 -11.1517,11.15803 -37.76495,-37.76811 z m 43.8621,38.75368 8.59115,-8.60066 8.59432,8.60066 -17.18547,0 z m 23.23509,-1.0426 -11.101,-11.101 26.61958,-26.61008 22.28756,0 -37.80614,37.71108 z m 15.52492,-42.7181 -26.63543,-26.82873 11.11051,-11.18974 37.84418,38.01847 -22.31926,0 z" />
    <path
       d="m 283.00098,435.46122 c 1.6764,-0.93169 2.96935,-2.15809 3.87252,-3.66337 1.14084,-1.91407 1.72076,-4.13236 1.72076,-6.59151 0,-4.71547 -1.83168,-8.31545 -5.43166,-10.70488 -3.5271,-2.34189 -8.47707,-3.52392 -14.72,-3.52392 l -16.84639,0 0,50.78002 19.50202,0 c 6.1637,0 10.98692,-1.28978 14.32703,-3.83448 3.38767,-2.58591 5.10843,-6.43624 5.10843,-11.44643 0,-2.7285 -0.75422,-5.1718 -2.24048,-7.2665 -1.22957,-1.72394 -3.00105,-2.98203 -5.29223,-3.74893 m -18.6749,-14.40627 4.11652,0 c 2.57641,0 4.49048,0.44683 5.69469,1.32781 1.15669,0.85246 1.72076,2.19611 1.72076,4.11653 0,1.70809 -0.58308,2.95351 -1.78097,3.8028 -1.24859,0.88098 -3.21337,1.33415 -5.83729,1.33415 l -3.91371,0 0,-10.58129 z m 11.90275,29.31007 c -1.10597,0.87464 -2.83308,1.31196 -5.1306,1.31196 l -6.77215,0 0,-11.18973 7.16193,0 c 2.30069,0.0603 3.94857,0.58626 4.90878,1.55281 0.95386,0.96654 1.43556,2.43379 1.43556,4.36688 0,1.81266 -0.52288,3.10878 -1.60352,3.95808"
       style="fill:#100f0d;fill-opacity:1;fill-rule:evenodd;stroke:none"
       id="path8183" />
    <path
       id="path8187"
       style="fill:#100f0d;fill-opacity:1;fill-rule:evenodd;stroke:none"
       d="m 307.13987,411.10874 -12.56191,0 0,50.64692 28.24212,0 3.24822,-9.94114 -18.92843,0 0,-40.70578 z" />
    <path
       d="m 343.95762,410.9788 -16.43126,50.80855 13.31297,0 2.82991,-10.00453 13.70275,0 2.87428,10.00453 13.30979,0 -16.46294,-50.80855 -13.1355,0 z m 2.70632,31.26534 3.844,-12.85663 3.86934,12.85663 -7.71334,0 z"
       style="fill:#100f0d;fill-opacity:1;fill-rule:evenodd;stroke:none"
       id="path8191" />
    <path
       id="path8195"
       style="fill:#100f0d;fill-opacity:1;fill-rule:evenodd;stroke:none"
       d="m 506.72465,435.53854 c 1.67007,-0.92852 2.96935,-2.15492 3.86618,-3.65703 1.13767,-1.9109 1.71759,-4.12603 1.71759,-6.582 0,-4.70597 -1.82533,-8.30277 -5.42215,-10.68903 -3.52392,-2.33239 -8.46439,-3.51441 -14.69464,-3.51441 l -16.82422,0 0,50.69128 19.4735,0 c 6.15103,0 10.9679,-1.28661 14.30485,-3.82815 3.38132,-2.57639 5.09575,-6.42356 5.09575,-11.4274 0,-2.72218 -0.75104,-5.1623 -2.23731,-7.25067 -1.22324,-1.72394 -2.99153,-2.97886 -5.27955,-3.74259 m -18.64322,-14.38092 4.1102,0 c 2.57322,0 4.48413,0.45 5.68201,1.32466 1.15668,0.84611 1.72076,2.18977 1.72076,4.10701 0,1.70809 -0.58308,2.94717 -1.78414,3.79646 -1.23908,0.88414 -3.20069,1.33098 -5.82145,1.33098 l -3.90738,0 0,-10.55911 z m 11.88375,29.25619 c -1.10598,0.87465 -2.82678,1.31197 -5.12427,1.31197 l -6.75948,0 0,-11.17072 7.14927,0 c 2.29752,0.0667 3.94223,0.58626 4.89927,1.54964 0.95387,0.96339 1.43555,2.43063 1.43555,4.35738 0,1.819 -0.52288,3.10562 -1.60034,3.95173" />
    <path
       d="m 604.71923,411.09638 -14.70099,0 -7.76404,15.88619 -7.63412,-15.88619 -14.5964,0 14.52036,25.14283 -14.90698,25.54847 14.70415,0 8.04611,-16.25062 8.04285,16.25062 15.40768,0 -15.63583,-25.55797 14.51721,-25.13333 z"
       style="fill:#100f0d;fill-opacity:1;fill-rule:evenodd;stroke:none"
       id="path8199" />
    <path
       id="path8203"
       style="fill:#100f0d;fill-opacity:1;fill-rule:nonzero;stroke:none"
       d="m 562.43592,437.43867 0,-2.33872 c -0.0252,-4.88977 -0.97289,-9.22178 -2.84578,-13.00556 -1.87289,-3.78062 -4.4968,-6.69609 -7.87179,-8.74644 -3.37498,-2.04718 -7.21578,-3.06759 -11.52248,-3.06759 -4.351,0 -8.22986,1.03309 -11.63969,3.10245 -3.413,2.07252 -6.03062,5.01019 -7.85595,8.81615 -1.82533,3.80597 -2.73801,8.1982 -2.73801,13.17986 l 0,2.86161 c 0.0918,4.79469 1.07429,9.03798 2.94717,12.73937 1.87288,3.70139 4.48729,6.54715 7.83694,8.54045 3.35281,1.98696 7.19361,2.98203 11.52244,2.98203 4.3257,0 8.18551,-1.02993 11.57,-3.08661 3.38765,-2.06301 6.00211,-5.00384 7.84011,-8.81932 1.83804,-3.81547 2.75704,-8.20453 2.75704,-13.15767 m -13.08482,0.1298 c -0.0228,4.6204 -0.81759,8.16017 -2.38625,10.62247 -1.56862,2.46232 -3.80279,3.69506 -6.70242,3.69506 -3.05176,0 -5.35245,-1.25492 -6.89889,-3.7616 -1.54645,-2.50351 -2.3197,-6.09082 -2.3197,-10.75241 l 0.0317,-3.49858 c 0.32644,-8.63235 3.36865,-12.94535 9.12035,-12.94535 2.94401,0 5.20669,1.2264 6.78486,3.6792 1.58129,2.45281 2.37037,6.04011 2.37037,10.77143 l 0,2.18978 z" />
    <path
       d="m 402.04568,444.45737 c -0.0857,2.70315 -0.82711,4.68694 -2.18978,5.90701 -1.38168,1.22957 -3.42252,1.8507 -6.06862,1.8507 -3.14366,0 -5.28273,-1.05528 -6.5535,-3.22288 -1.29295,-2.21195 -1.94893,-5.9799 -1.94893,-11.20557 l 0,-3.5271 c 0.0634,-4.81687 0.78591,-8.35347 2.13274,-10.51791 1.32464,-2.12956 3.3623,-3.16581 6.23341,-3.16581 2.82358,0 4.94364,0.6338 6.29997,1.88237 1.34683,1.23908 2.0757,3.3433 2.16126,6.25244 l 0.0102,0.40246 12.85979,0 -0.0411,-0.44999 c -0.51022,-5.68519 -2.6683,-10.21369 -6.41723,-13.45874 -3.73941,-3.24188 -8.74643,-4.88343 -14.8721,-4.88343 -4.26547,0 -8.07778,1.02993 -11.33551,3.06125 -3.2514,2.0345 -5.77708,4.95315 -7.50736,8.67989 -1.72076,3.70456 -2.59224,8.08094 -2.59224,13.01508 l 0,2.46548 c 0,7.86545 1.93943,14.04817 5.76124,18.37701 3.83766,4.34787 9.15524,6.55349 15.81013,6.55349 4.01829,0 7.64997,-0.75106 10.78727,-2.23731 3.15315,-1.48626 5.64082,-3.619 7.38693,-6.33799 1.74929,-2.70949 2.71267,-5.8785 2.87746,-9.40876 l 0.0228,-0.43415 -12.80277,0 -0.0127,0.40246 z"
       style="fill:#100f0d;fill-opacity:1;fill-rule:nonzero;stroke:none"
       id="path8207" />
    <path
       id="path8211"
       style="fill:#100f0d;fill-opacity:1;fill-rule:nonzero;stroke:none"
       d="m 462.63405,411.09638 -15.91787,0 -10.88551,15.83549 -3.41618,5.18448 0,-21.01997 -12.85029,0 0,50.6913 12.85029,0 0,-13.40169 4.43976,-4.87392 10.3341,18.06963 0.11739,0.2061 15.22387,0 -17.08407,-28.19457 17.18864,-22.49672 z" />
  </g>
</svg>
